<svg width="16" height="17" viewBox="0 0 16 17" fill="none" xmlns="http://www.w3.org/2000/svg">
<path d="M14 11.8335V6.50016C14 5.76378 13.4031 5.16683 12.6667 5.16683H11C10.6318 5.16683 10.3333 4.86835 10.3333 4.50016C10.3333 4.13198 10.0349 3.8335 9.66667 3.8335H6.33333C5.96515 3.8335 5.66667 4.13198 5.66667 4.50016C5.66667 4.86835 5.36819 5.16683 5 5.16683H3.33333C2.59695 5.16683 2 5.76378 2 6.50016V11.8335C2 12.5699 2.59695 13.1668 3.33333 13.1668H12.6667C13.4031 13.1668 14 12.5699 14 11.8335Z" stroke="#6F85A3" stroke-width="1.5"/>
<mask id="path-2-inside-1_85_1689" fill="white">
<path d="M9.5 9.16699C9.5 9.99539 8.8284 10.667 8 10.667V11.667C9.38073 11.667 10.5 10.5477 10.5 9.16699H9.5ZM8 10.667C7.1716 10.667 6.5 9.99539 6.5 9.16699H5.5C5.5 10.5477 6.61929 11.667 8 11.667V10.667ZM6.5 9.16699C6.5 8.33859 7.1716 7.66699 8 7.66699V6.66699C6.61929 6.66699 5.5 7.78626 5.5 9.16699H6.5ZM8 7.66699C8.8284 7.66699 9.5 8.33859 9.5 9.16699H10.5C10.5 7.78626 9.38073 6.66699 8 6.66699V7.66699Z"/>
</mask>
<path d="M9.5 9.16699C9.5 9.99539 8.8284 10.667 8 10.667V11.667C9.38073 11.667 10.5 10.5477 10.5 9.16699H9.5ZM8 10.667C7.1716 10.667 6.5 9.99539 6.5 9.16699H5.5C5.5 10.5477 6.61929 11.667 8 11.667V10.667ZM6.5 9.16699C6.5 8.33859 7.1716 7.66699 8 7.66699V6.66699C6.61929 6.66699 5.5 7.78626 5.5 9.16699H6.5ZM8 7.66699C8.8284 7.66699 9.5 8.33859 9.5 9.16699H10.5C10.5 7.78626 9.38073 6.66699 8 6.66699V7.66699Z" fill="#001A72"/>
<path d="M9.5 9.16699V7.66699H8V9.16699H9.5ZM8 10.667V9.16699H6.5V10.667H8ZM8 11.667H6.5V13.167H8V11.667ZM10.5 9.16699H12V7.66699H10.5V9.16699ZM8 10.667H9.5V9.16699H8V10.667ZM6.5 9.16699H8V7.66699H6.5V9.16699ZM5.5 9.16699V7.66699H4V9.16699H5.5ZM8 11.667V13.167H9.5V11.667H8ZM6.5 9.16699V10.667H8V9.16699H6.5ZM8 7.66699V9.16699H9.5V7.66699H8ZM8 6.66699H9.5V5.16699H8V6.66699ZM5.5 9.16699H4V10.667H5.5V9.16699ZM8 7.66699H6.5V9.16699H8V7.66699ZM9.5 9.16699H8V10.667H9.5V9.16699ZM10.5 9.16699V10.667H12V9.16699H10.5ZM8 6.66699V5.16699H6.5V6.66699H8ZM8 9.16699V12.167C9.65683 12.167 11 10.8238 11 9.16699H8ZM6.5 10.667V11.667H9.5V10.667H6.5ZM8 13.167C10.2092 13.167 12 11.3762 12 9.16699H9C9 9.7193 8.55231 10.167 8 10.167V13.167ZM10.5 7.66699H9.5V10.667H10.5V7.66699ZM8 9.16699H5C5 10.8238 6.34317 12.167 8 12.167V9.16699ZM6.5 7.66699H5.5V10.667H6.5V7.66699ZM4 9.16699C4 11.3762 5.79087 13.167 8 13.167V10.167C7.44771 10.167 7 9.71929 7 9.16699H4ZM9.5 11.667V10.667H6.5V11.667H9.5ZM8 9.16699V6.16699C6.34317 6.16699 5 7.51017 5 9.16699H8ZM9.5 7.66699V6.66699H6.5V7.66699H9.5ZM8 5.16699C5.79087 5.16699 4 6.95782 4 9.16699H7C7 8.61469 7.44771 8.16699 8 8.16699V5.16699ZM5.5 10.667H6.5V7.66699H5.5V10.667ZM8 9.16699H11C11 7.51017 9.65683 6.16699 8 6.16699V9.16699ZM9.5 10.667H10.5V7.66699H9.5V10.667ZM12 9.16699C12 6.95783 10.2092 5.16699 8 5.16699V8.16699C8.55231 8.16699 9 8.61469 9 9.16699H12ZM6.5 6.66699V7.66699H9.5V6.66699H6.5Z" fill="#6F85A3" mask="url(#path-2-inside-1_85_1689)"/>
</svg>
